<mxfile host="app.diagrams.net" modified="2024-03-14T12:25:30.350Z" agent="Mozilla/5.0 (Windows NT 10.0; Win64; x64) AppleWebKit/537.36 (KHTML, like Gecko) Chrome/121.0.0.0 Safari/537.36 OPR/107.0.0.0" etag="1x-lvjyxtQ9VUusL3G5W" version="24.0.6" type="device">
  <diagram name="Página-1" id="-g3sAP6bvSKLi-jsB2FI">
    <mxGraphModel dx="1327" dy="730" grid="1" gridSize="10" guides="1" tooltips="1" connect="1" arrows="1" fold="1" page="1" pageScale="1" pageWidth="827" pageHeight="1169" math="0" shadow="0">
      <root>
        <mxCell id="0" />
        <mxCell id="1" parent="0" />
        <mxCell id="_PrOM837-fI_XfVHeew0-10" style="edgeStyle=orthogonalEdgeStyle;rounded=0;orthogonalLoop=1;jettySize=auto;html=1;endArrow=none;endFill=0;" edge="1" parent="1" source="_PrOM837-fI_XfVHeew0-1" target="_PrOM837-fI_XfVHeew0-11">
          <mxGeometry relative="1" as="geometry">
            <mxPoint x="570" y="105" as="targetPoint" />
          </mxGeometry>
        </mxCell>
        <mxCell id="_PrOM837-fI_XfVHeew0-1" value="USUARIOS" style="rounded=0;whiteSpace=wrap;html=1;" vertex="1" parent="1">
          <mxGeometry x="160" y="60" width="160" height="90" as="geometry" />
        </mxCell>
        <mxCell id="_PrOM837-fI_XfVHeew0-6" style="rounded=0;orthogonalLoop=1;jettySize=auto;html=1;entryX=0.5;entryY=1;entryDx=0;entryDy=0;endArrow=none;endFill=0;" edge="1" parent="1" source="_PrOM837-fI_XfVHeew0-2" target="_PrOM837-fI_XfVHeew0-1">
          <mxGeometry relative="1" as="geometry" />
        </mxCell>
        <mxCell id="_PrOM837-fI_XfVHeew0-2" value="&lt;u&gt;ID&lt;/u&gt;" style="ellipse;whiteSpace=wrap;html=1;" vertex="1" parent="1">
          <mxGeometry x="60" y="190" width="70" height="60" as="geometry" />
        </mxCell>
        <mxCell id="_PrOM837-fI_XfVHeew0-7" style="rounded=0;orthogonalLoop=1;jettySize=auto;html=1;exitX=0.5;exitY=0;exitDx=0;exitDy=0;entryX=0.5;entryY=1;entryDx=0;entryDy=0;endArrow=none;endFill=0;" edge="1" parent="1" source="_PrOM837-fI_XfVHeew0-3" target="_PrOM837-fI_XfVHeew0-1">
          <mxGeometry relative="1" as="geometry" />
        </mxCell>
        <mxCell id="_PrOM837-fI_XfVHeew0-3" value="NOME" style="ellipse;whiteSpace=wrap;html=1;" vertex="1" parent="1">
          <mxGeometry x="160" y="250" width="70" height="60" as="geometry" />
        </mxCell>
        <mxCell id="_PrOM837-fI_XfVHeew0-8" style="rounded=0;orthogonalLoop=1;jettySize=auto;html=1;entryX=0.5;entryY=1;entryDx=0;entryDy=0;endArrow=none;endFill=0;" edge="1" parent="1" source="_PrOM837-fI_XfVHeew0-4" target="_PrOM837-fI_XfVHeew0-1">
          <mxGeometry relative="1" as="geometry" />
        </mxCell>
        <mxCell id="_PrOM837-fI_XfVHeew0-4" value="E-MAIL" style="ellipse;whiteSpace=wrap;html=1;" vertex="1" parent="1">
          <mxGeometry x="250" y="250" width="70" height="60" as="geometry" />
        </mxCell>
        <mxCell id="_PrOM837-fI_XfVHeew0-9" style="rounded=0;orthogonalLoop=1;jettySize=auto;html=1;endArrow=none;endFill=0;entryX=0.5;entryY=1;entryDx=0;entryDy=0;" edge="1" parent="1" source="_PrOM837-fI_XfVHeew0-5" target="_PrOM837-fI_XfVHeew0-1">
          <mxGeometry relative="1" as="geometry">
            <mxPoint x="270" y="160" as="targetPoint" />
          </mxGeometry>
        </mxCell>
        <mxCell id="_PrOM837-fI_XfVHeew0-5" value="SENHA" style="ellipse;whiteSpace=wrap;html=1;" vertex="1" parent="1">
          <mxGeometry x="340" y="190" width="70" height="60" as="geometry" />
        </mxCell>
        <mxCell id="_PrOM837-fI_XfVHeew0-12" style="edgeStyle=orthogonalEdgeStyle;rounded=0;orthogonalLoop=1;jettySize=auto;html=1;endArrow=none;endFill=0;" edge="1" parent="1" source="_PrOM837-fI_XfVHeew0-11">
          <mxGeometry relative="1" as="geometry">
            <mxPoint x="770" y="105" as="targetPoint" />
          </mxGeometry>
        </mxCell>
        <mxCell id="_PrOM837-fI_XfVHeew0-11" value="POSSUI" style="rhombus;whiteSpace=wrap;html=1;" vertex="1" parent="1">
          <mxGeometry x="530" y="65" width="80" height="80" as="geometry" />
        </mxCell>
        <mxCell id="_PrOM837-fI_XfVHeew0-13" value="Tarefas" style="rounded=0;whiteSpace=wrap;html=1;" vertex="1" parent="1">
          <mxGeometry x="770" y="60" width="160" height="90" as="geometry" />
        </mxCell>
        <mxCell id="_PrOM837-fI_XfVHeew0-21" style="rounded=0;orthogonalLoop=1;jettySize=auto;html=1;entryX=0.5;entryY=1;entryDx=0;entryDy=0;endArrow=none;endFill=0;" edge="1" parent="1" source="_PrOM837-fI_XfVHeew0-15" target="_PrOM837-fI_XfVHeew0-13">
          <mxGeometry relative="1" as="geometry">
            <mxPoint x="860" y="210" as="targetPoint" />
          </mxGeometry>
        </mxCell>
        <mxCell id="_PrOM837-fI_XfVHeew0-15" value="DESCRIÇÃO" style="ellipse;whiteSpace=wrap;html=1;" vertex="1" parent="1">
          <mxGeometry x="680" y="310" width="100" height="100" as="geometry" />
        </mxCell>
        <mxCell id="_PrOM837-fI_XfVHeew0-20" style="rounded=0;orthogonalLoop=1;jettySize=auto;html=1;entryX=0.5;entryY=1;entryDx=0;entryDy=0;endArrow=none;endFill=0;" edge="1" parent="1" source="_PrOM837-fI_XfVHeew0-16" target="_PrOM837-fI_XfVHeew0-13">
          <mxGeometry relative="1" as="geometry" />
        </mxCell>
        <mxCell id="_PrOM837-fI_XfVHeew0-16" value="ID" style="ellipse;whiteSpace=wrap;html=1;" vertex="1" parent="1">
          <mxGeometry x="590" y="180" width="100" height="100" as="geometry" />
        </mxCell>
        <mxCell id="_PrOM837-fI_XfVHeew0-22" style="rounded=0;orthogonalLoop=1;jettySize=auto;html=1;endArrow=none;endFill=0;entryX=0.5;entryY=1;entryDx=0;entryDy=0;" edge="1" parent="1" source="_PrOM837-fI_XfVHeew0-17" target="_PrOM837-fI_XfVHeew0-13">
          <mxGeometry relative="1" as="geometry">
            <mxPoint x="890" y="210" as="targetPoint" />
          </mxGeometry>
        </mxCell>
        <mxCell id="_PrOM837-fI_XfVHeew0-17" value="DATA LIMITE" style="ellipse;whiteSpace=wrap;html=1;" vertex="1" parent="1">
          <mxGeometry x="800" y="400" width="100" height="100" as="geometry" />
        </mxCell>
        <mxCell id="_PrOM837-fI_XfVHeew0-23" style="rounded=0;orthogonalLoop=1;jettySize=auto;html=1;endArrow=none;endFill=0;" edge="1" parent="1" source="_PrOM837-fI_XfVHeew0-18">
          <mxGeometry relative="1" as="geometry">
            <mxPoint x="850" y="150" as="targetPoint" />
          </mxGeometry>
        </mxCell>
        <mxCell id="_PrOM837-fI_XfVHeew0-18" value="STATUS" style="ellipse;whiteSpace=wrap;html=1;" vertex="1" parent="1">
          <mxGeometry x="920" y="310" width="105" height="100" as="geometry" />
        </mxCell>
        <mxCell id="_PrOM837-fI_XfVHeew0-24" style="rounded=0;orthogonalLoop=1;jettySize=auto;html=1;endArrow=none;endFill=0;entryX=0.5;entryY=1;entryDx=0;entryDy=0;" edge="1" parent="1" source="_PrOM837-fI_XfVHeew0-19" target="_PrOM837-fI_XfVHeew0-13">
          <mxGeometry relative="1" as="geometry">
            <mxPoint x="990" y="160" as="targetPoint" />
          </mxGeometry>
        </mxCell>
        <mxCell id="_PrOM837-fI_XfVHeew0-19" value="RESPONSÁVEL" style="ellipse;whiteSpace=wrap;html=1;" vertex="1" parent="1">
          <mxGeometry x="1010" y="180" width="100" height="100" as="geometry" />
        </mxCell>
        <mxCell id="_PrOM837-fI_XfVHeew0-25" value="1" style="text;html=1;align=center;verticalAlign=middle;whiteSpace=wrap;rounded=0;" vertex="1" parent="1">
          <mxGeometry x="310" y="80" width="60" height="30" as="geometry" />
        </mxCell>
        <mxCell id="_PrOM837-fI_XfVHeew0-26" value="N" style="text;html=1;align=center;verticalAlign=middle;whiteSpace=wrap;rounded=0;" vertex="1" parent="1">
          <mxGeometry x="490" y="80" width="60" height="30" as="geometry" />
        </mxCell>
        <mxCell id="_PrOM837-fI_XfVHeew0-27" value="N" style="text;html=1;align=center;verticalAlign=middle;whiteSpace=wrap;rounded=0;" vertex="1" parent="1">
          <mxGeometry x="590" y="80" width="60" height="30" as="geometry" />
        </mxCell>
        <mxCell id="_PrOM837-fI_XfVHeew0-28" value="1" style="text;html=1;align=center;verticalAlign=middle;whiteSpace=wrap;rounded=0;" vertex="1" parent="1">
          <mxGeometry x="720" y="80" width="60" height="30" as="geometry" />
        </mxCell>
      </root>
    </mxGraphModel>
  </diagram>
</mxfile>
